<?xml version="1.0" encoding="UTF-8"?>
<svg width="217px" height="60px" viewBox="0 0 217 60" version="1.1" xmlns="http://www.w3.org/2000/svg" xmlns:xlink="http://www.w3.org/1999/xlink">
    <g stroke="none" stroke-width="1" fill="none" fill-rule="evenodd">
        <g fill-rule="nonzero">
            <path d="M6.20129788,6.31982422 L6.20129788,13.1435547 L13.8369096,13.1435547 C15.2009207,13.1435547 16.3082842,12.8881048 17.1590334,12.3771973 C18.0097826,11.8662898 18.4351508,10.9599674 18.4351508,9.65820312 C18.4351508,8.21646415 17.8726805,7.26465075 16.7477229,6.80273438 C15.7774469,6.48079266 14.5400121,6.31982422 13.0353813,6.31982422 L6.20129788,6.31982422 Z M6.20129788,18.2666016 L6.20129788,26.5180664 L13.8369096,26.5180664 C15.2009207,26.5180664 16.2625835,26.3361021 17.0219299,25.972168 C18.400003,25.3002896 19.0890292,24.0125421 19.0890292,22.1088867 C19.0890292,20.4991781 18.4210956,19.3933949 17.0852085,18.7915039 C16.339924,18.4555647 15.292323,18.280599 13.9423738,18.2666016 L6.20129788,18.2666016 Z M15.1024806,0.944824219 C18.9132745,1.00081408 21.6131323,2.09959867 23.2021349,4.24121094 C24.1583489,5.55697272 24.6364487,7.13166401 24.6364487,8.96533203 C24.6364487,10.8549899 24.1583489,12.3736922 23.2021349,13.5214844 C22.6677801,14.1653678 21.8803215,14.7532525 20.8397357,15.2851562 C22.4287384,15.8590523 23.6275034,16.768874 24.4360667,18.0146484 C25.2446299,19.2604229 25.6489055,20.7721265 25.6489055,22.5498047 C25.6489055,24.3834727 25.1848675,26.0281503 24.2567774,27.4838867 C23.6661747,28.4497119 22.9279323,29.2615527 22.0420282,29.9194336 C21.0436283,30.6752967 19.865956,31.1931952 18.5089758,31.4731445 C17.1519957,31.7530938 15.6790264,31.8930664 14.0900238,31.8930664 L3.26849658e-13,31.8930664 L3.26849658e-13,0.944824219 L15.1024806,0.944824219 Z M55.6067081,6.42480469 L39.1542852,6.42480469 L39.1542852,12.996582 L54.2567657,12.996582 L54.2567657,18.371582 L39.1542852,18.371582 L39.1542852,26.3291016 L56.3660507,26.3291016 L56.3660507,31.8930664 L32.8053373,31.8930664 L32.8053373,0.944824219 L55.6067081,0.944824219 L55.6067081,6.42480469 Z M67.6566811,22.3398438 C67.8535487,23.7535878 68.2402471,24.8103806 68.8167879,25.5102539 C69.8714357,26.7840233 71.6783717,27.4208984 74.2376503,27.4208984 C75.7704051,27.4208984 77.0148708,27.2529314 77.9710848,26.9169922 C79.7850789,26.2731088 80.6920624,25.0763434 80.6920624,23.3266602 C80.6920624,22.3048452 80.2420861,21.5140002 79.34212,20.9541016 C78.4421539,20.4082004 77.0289471,19.9252951 75.1024572,19.5053711 L71.8119726,18.7705078 C68.5777194,18.0426396 66.3418997,17.2517946 65.1044463,16.3979492 C63.0092127,14.9702077 61.9616117,12.7376454 61.9616117,9.70019531 C61.9616117,6.92869708 62.9740583,4.62614849 64.9989821,2.79248047 C67.0239058,0.958812446 69.9979679,0.0419921875 73.9212576,0.0419921875 C77.1976966,0.0419921875 79.9924713,0.906322737 82.3056654,2.63500977 C84.6188595,4.36369679 85.8316863,6.87270491 85.944182,10.1621094 L79.7006985,10.1621094 C79.5882027,8.30044642 78.7726207,6.97770574 77.2539279,6.19384766 C76.241466,5.67594142 74.9829385,5.41699219 73.4783077,5.41699219 C71.8049333,5.41699219 70.4690661,5.75292633 69.4706662,6.42480469 C68.4722663,7.09668305 67.9730739,8.03449919 67.9730739,9.23828125 C67.9730739,10.344081 68.4652355,11.1699191 69.4495734,11.7158203 C70.0823621,12.0797544 71.4322909,12.5066707 73.4994006,12.996582 L78.8569845,14.2773438 C81.2053335,14.8372424 82.9771152,15.5860956 84.1723826,16.5239258 C86.0285627,17.9796622 86.9566388,20.0862492 86.9566388,22.84375 C86.9566388,25.6712381 85.8703679,28.0192778 83.6977935,29.8879395 C81.5252191,31.7566011 78.4562401,32.690918 74.4907645,32.690918 C70.4409171,32.690918 67.2559286,31.7705984 64.9357035,29.9299316 C62.6154784,28.0892649 61.4553833,25.5592609 61.4553833,22.3398438 L67.6566811,22.3398438 Z M110.797515,10.7919922 C110.797515,9.18228362 110.372147,8.03450864 109.521398,7.34863281 C108.670648,6.66275699 107.478914,6.31982422 105.946159,6.31982422 L99.8925115,6.31982422 L99.8925115,15.4321289 L105.946159,15.4321289 C107.478914,15.4321289 108.670648,15.0612016 109.521398,14.3193359 C110.372147,13.5774702 110.797515,12.4017008 110.797515,10.7919922 Z M117.230834,10.75 C117.230834,14.4033386 116.302758,16.9858323 114.446578,18.4975586 C112.590398,20.0092849 109.939756,20.7651367 106.494574,20.7651367 L99.8925115,20.7651367 L99.8925115,31.8930664 L93.4380995,31.8930664 L93.4380995,0.944824219 L106.979709,0.944824219 C110.101467,0.944824219 112.590398,1.7426678 114.446578,3.33837891 C116.302758,4.93409001 117.230834,7.40460567 117.230834,10.75 Z M137.380462,27.2739258 C139.953802,27.2739258 141.996273,26.329111 143.507934,24.4394531 C145.019596,22.5497952 145.775416,19.8623221 145.775416,16.3769531 C145.775416,12.9055816 145.019596,10.2216078 143.507934,8.32495117 C141.996273,6.42829455 139.953802,5.47998047 137.380462,5.47998047 C134.807121,5.47998047 132.754104,6.42479524 131.221349,8.31445312 C129.688595,10.204111 128.922229,12.8915841 128.922229,16.3769531 C128.922229,19.8623221 129.688595,22.5497952 131.221349,24.4394531 C132.754104,26.329111 134.807121,27.2739258 137.380462,27.2739258 Z M152.272014,16.3769531 C152.272014,21.9339471 150.704127,26.1891128 147.568308,29.1425781 C145.219959,31.5501422 141.824044,32.7539062 137.380462,32.7539062 C132.936879,32.7539062 129.540964,31.5501422 127.192615,29.1425781 C124.042734,26.1891128 122.467817,21.9339471 122.467817,16.3769531 C122.467817,10.7079795 124.042734,6.45281369 127.192615,3.61132812 C129.540964,1.203764 132.936879,0 137.380462,0 C141.824044,0 145.219959,1.203764 147.568308,3.61132812 C150.704127,6.45281369 152.272014,10.7079795 152.272014,16.3769531 Z M158.858939,0.944824219 L165.250072,0.944824219 L165.250072,13.6894531 L177.251904,0.944824219 L185.646858,0.944824219 L172.906777,13.6894531 L186.300736,31.8930664 L177.947968,31.8930664 L168.350721,18.371582 L165.250072,21.5419922 L165.250072,31.8930664 L158.858939,31.8930664 L158.858939,0.944824219 Z M214.465647,6.42480469 L198.013224,6.42480469 L198.013224,12.996582 L213.115704,12.996582 L213.115704,18.371582 L198.013224,18.371582 L198.013224,26.3291016 L215.224989,26.3291016 L215.224989,31.8930664 L191.664276,31.8930664 L191.664276,0.944824219 L214.465647,0.944824219 L214.465647,6.42480469 Z" fill="#424242"></path>
            <path d="M172.094434,49.1879883 L172.094434,52.0444336 L175.290736,52.0444336 C175.861717,52.0444336 176.325265,51.9375011 176.681393,51.7236328 C177.03752,51.5097646 177.215581,51.1303738 177.215581,50.5854492 C177.215581,49.9819306 176.980129,49.5834971 176.509216,49.3901367 C176.103054,49.2553704 175.585058,49.1879883 174.955213,49.1879883 L172.094434,49.1879883 Z M172.094434,54.1889648 L172.094434,57.6430664 L175.290736,57.6430664 C175.861717,57.6430664 176.306134,57.5668953 176.624,57.4145508 C177.200868,57.1332994 177.489298,56.5942423 177.489298,55.7973633 C177.489298,55.1235318 177.209698,54.6606458 176.650489,54.4086914 C176.33851,54.2680657 175.899979,54.1948242 175.334884,54.1889648 L172.094434,54.1889648 Z M175.82051,46.9379883 C177.415726,46.9614259 178.545899,47.4213822 179.211063,48.3178711 C179.611339,48.8686551 179.811473,49.5278282 179.811473,50.2954102 C179.811473,51.0864297 179.611339,51.7221656 179.211063,52.2026367 C178.98738,52.4721693 178.657746,52.7182606 178.222152,52.940918 C178.887316,53.1811535 179.389124,53.5620091 179.727593,54.0834961 C180.066061,54.6049831 180.235293,55.2377892 180.235293,55.9819336 C180.235293,56.7495156 180.041044,57.4379852 179.652541,58.0473633 C179.405312,58.4516622 179.09628,58.7915025 178.725437,59.0668945 C178.307502,59.3833024 177.814523,59.6000971 177.246485,59.7172852 C176.678447,59.8344732 176.061855,59.8930664 175.396691,59.8930664 L169.498541,59.8930664 L169.498541,46.9379883 L175.82051,46.9379883 Z M192.775768,49.2319336 L185.888707,49.2319336 L185.888707,51.9829102 L192.210676,51.9829102 L192.210676,54.2329102 L185.888707,54.2329102 L185.888707,57.5639648 L193.093632,57.5639648 L193.093632,59.8930664 L183.231008,59.8930664 L183.231008,46.9379883 L192.775768,46.9379883 L192.775768,49.2319336 Z M205.307414,46.9379883 L205.307414,49.2319336 L201.413576,49.2319336 L201.413576,59.8930664 L198.676411,59.8930664 L198.676411,49.2319336 L194.764913,49.2319336 L194.764913,46.9379883 L205.307414,46.9379883 Z M209.760008,54.9975586 L213.062265,54.9975586 L211.437625,49.8999023 L209.760008,54.9975586 Z M209.92777,46.9379883 L213.000458,46.9379883 L217.609491,59.8930664 L214.660417,59.8930664 L213.821608,57.2299805 L209.027154,57.2299805 L208.126538,59.8930664 L205.283418,59.8930664 L209.92777,46.9379883 Z" fill="#A3A3A3"></path>
        </g>
    </g>
</svg>