<?xml version="1.0" encoding="UTF-8"?>
<svg width="183px" height="41px" viewBox="0 0 183 41" version="1.1" xmlns="http://www.w3.org/2000/svg" xmlns:xlink="http://www.w3.org/1999/xlink">
    <g stroke="none" stroke-width="1" fill="none" fill-rule="evenodd">
        <g fill="#231F20">
            <polygon transform="translate(180.975606, 20.633022) rotate(-360.000000) translate(-180.975606, -20.633022) " points="179.818332 40.9997722 182.132879 40.9587722 182.091445 0.266272222 179.818332 0.308411111"></polygon>
            <path d="M155.366643,3.66609814 L165.62094,27.702083 C165.102516,27.6138124 164.474583,27.5713966 163.701026,27.5713966 L147.077696,27.5713966 C146.417143,27.5713966 145.890565,27.6183979 145.445536,27.7124004 C145.345346,27.7261569 145.231177,27.7341815 145.136812,27.7502307 L151.122562,13.6120229 L155.366643,3.66609814 Z M167.278729,31.6031875 L171.330586,41 L173.095555,40.959877 L173.752613,40.959877 L173.746788,40.9449741 L173.792223,40.9438278 L156.306795,0 L154.433481,0.0252201873 L136.962034,41 L139.486581,40.9747798 L143.499992,31.6020411 C143.969486,30.4992311 144.339955,29.8756046 146.524322,29.8756046 L164.254399,29.8756046 C166.437602,29.8756046 166.809236,30.5003775 167.278729,31.6031875 L167.278729,31.6031875 Z" transform="translate(155.377128, 20.500000) rotate(-360.000000) translate(-155.377128, -20.500000) "></path>
            <path d="M117.464017,22.6763028 C120.734998,26.466525 123.926564,30.3216639 126.950092,34.1346639 L132.413621,40.9998861 L134.136583,40.9588861 L135.208111,40.9588861 L135.188545,40.9349694 L135.240338,40.9326917 L129.683583,33.928525 C127.758055,31.4981361 125.768074,28.9846083 123.657243,26.6020528 C122.507451,25.3014417 121.357658,23.9586917 120.223979,22.6341639 L119.222658,21.4656639 C118.231696,20.1024139 117.457111,18.9339139 116.895451,17.7016361 L126.272187,7.30585833 L132.621942,0.308525 L132.585111,0.308525 L132.621942,0.266386111 L129.615677,0.280052778 L107.17113,25.1203583 C106.878791,25.441525 106.452942,25.9916083 106.06047,26.6726639 C105.961489,26.8264139 105.863658,26.9835806 105.76813,27.1441639 L105.726696,0.266386111 L103.453583,0.307386111 L103.453583,40.9998861 L105.76813,40.9588861 L105.76813,34.031025 C105.76813,31.437775 106.807432,29.008525 108.944734,26.5986361 L113.385074,21.5841083 L115.365847,19.373525 C115.867658,20.5739139 116.818338,21.9690528 117.464017,22.6763028" transform="translate(119.346960, 20.633136) rotate(-360.000000) translate(-119.346960, -20.633136) "></path>
            <path d="M82.0253189,22.6763028 C85.2893943,26.4574139 88.4798094,30.3125528 91.5113943,34.1346639 L96.9749226,40.9998861 L98.6978849,40.9588861 L99.7694132,40.9588861 L99.7498472,40.9349694 L99.8027906,40.9326917 L94.2448849,33.9273861 C92.3170547,31.4935806 90.3236208,28.977775 88.2196962,26.6020528 C87.0745075,25.3094139 85.9316208,23.9723583 84.7910358,22.6398583 L83.7839604,21.4656639 C82.7941491,20.1046917 82.0207151,18.9361917 81.4579038,17.7016361 L90.8369415,7.30358056 L97.1843943,0.308525 L97.1464132,0.308525 L97.1843943,0.266386111 L94.1781302,0.280052778 L71.7324321,25.1203583 C71.4412434,25.4403861 71.0165453,25.9893306 70.6240736,26.6692472 C70.5239415,26.8241361 70.4261113,26.9824417 70.3294321,27.1441639 L70.2891491,0.357497222 L70.2891491,0.308525 L70.2891491,0.266386111 L68.0148849,0.307386111 L68.0148849,40.9998861 L70.330583,40.9588861 L70.330583,34.031025 C70.330583,31.437775 71.368734,29.008525 73.5071868,26.5986361 L77.9578849,21.5715806 L79.9283,19.373525 C80.4289604,20.5739139 81.3807906,21.9690528 82.0253189,22.6763028" transform="translate(83.908838, 20.633136) rotate(-360.000000) translate(-83.908838, -20.633136) "></path>
            <path d="M59.2829075,40.9591139 L59.2829075,40.9591139 L59.3243415,40.9591139 L59.2829075,38.7098083 L36.052266,38.7508083 L35.8945868,38.7508083 L35.8945868,24.6103639 C35.8945868,24.486225 35.8876811,24.3506972 35.8784736,24.1866972 C35.870417,24.0443361 35.8623604,23.8940028 35.8623604,23.7493639 C35.8623604,23.4988083 35.8876811,23.327975 35.9417755,23.2095306 L36.0292472,23.0295861 C36.2490774,22.6013639 36.5149453,22.3098083 36.8418132,22.1344194 C37.4092283,21.8337528 38.148134,21.7927528 38.7961151,21.7927528 L53.7537755,21.7517528 L53.7123415,19.5035861 C53.7123415,19.5035861 39.5465302,19.5035861 39.0976623,19.5070028 C37.8442849,19.5218083 36.9787755,19.6618917 36.3653226,19.9511694 C36.3273415,19.9693917 36.1834736,20.0536694 36.0223415,20.1800861 C35.9820585,20.2040028 35.9394736,20.2290583 35.8945868,20.2563917 L35.8531528,2.55805833 L59.3243415,2.51705833 L59.2829075,0.266613889 L33.5800396,0.307613889 L33.5800396,41.0001139 L59.0193415,40.9591139 L59.2829075,40.9591139 Z" transform="translate(46.452191, 20.633364) rotate(-360.000000) translate(-46.452191, -20.633364) "></path>
            <path d="M2.31454717,24.5258583 C2.31454717,24.0042472 2.51826415,23.5714694 2.806,23.0179694 C3.02467925,22.5943028 3.29169811,22.305025 3.61741509,22.1319139 C4.1825283,21.833525 4.92028302,21.7936639 5.56711321,21.7936639 L20.3463774,21.751525 L20.3049434,19.5033583 C20.3049434,19.5033583 6.45909434,19.5033583 5.97224528,19.5044972 C4.66477358,19.5147472 3.76703774,19.6559694 3.13862264,19.9498028 C3.02583019,20.0044694 2.75535849,20.1468306 2.4664717,20.3825806 C2.41583019,20.4156083 2.36749057,20.4463583 2.31454717,20.4828028 L2.27311321,2.61819167 L2.27311321,2.55783056 L25.9180943,2.51683056 L25.8766604,0.266386111 L-1.09601217e-12,0.307386111 L-1.09601217e-12,40.9998861 L2.31454717,40.9588861 L2.31454717,24.5258583 Z" transform="translate(12.959047, 20.633136) rotate(-360.000000) translate(-12.959047, -20.633136) "></path>
        </g>
    </g>
</svg>